<?xml version="1.0" encoding="utf-8"?>
<!-- Generator: Adobe Illustrator 25.2.1, SVG Export Plug-In . SVG Version: 6.00 Build 0)  -->
<svg version="1.1" id="Layer_1" xmlns="http://www.w3.org/2000/svg" xmlns:xlink="http://www.w3.org/1999/xlink" x="0px" y="0px"
	 viewBox="0 0 566.9 566.9" style="enable-background:new 0 0 566.9 566.9;" xml:space="preserve">
<style type="text/css">
	.st0{fill:url(#SVGID_1_);}
	.st1{fill:url(#SVGID_2_);}
	.st2{fill:url(#SVGID_3_);}
	.st3{fill:url(#SVGID_4_);}
	.st4{fill:url(#SVGID_5_);}
	.st5{fill:url(#SVGID_6_);}
</style>
<g>
	
		<linearGradient id="SVGID_1_" gradientUnits="userSpaceOnUse" x1="194.5276" y1="617.4436" x2="162.7629" y2="181.2083" gradientTransform="matrix(1 0 0 -1 0 510.7948)">
		<stop  offset="0.2462" style="stop-color:#BF953F"/>
		<stop  offset="0.9368" style="stop-color:#FCF6BA"/>
	</linearGradient>
	<path class="st0" d="M141.7,177.2c0,19.6,15.9,35.4,35.4,35.4H248v141.7h-70.9c-12.1,0-24-1.2-35.4-3.5
		c-26.2-5.3-50.3-16.4-70.9-31.9c-13.4-10.1-25.4-22-35.5-35.5c-15.5-20.6-26.6-44.7-31.9-70.9C1.2,201.1,0,189.3,0,177.2
		c0-12.1,1.2-24,3.5-35.4c5.3-26.2,16.4-50.3,31.9-70.9c10.1-13.4,22-25.4,35.4-35.4c20.6-15.5,44.7-26.6,70.9-31.9
		C153.2,1.2,165,0,177.2,0c12.1,0,24,1.2,35.4,3.5c26.2,5.3,50.3,16.4,70.9,31.9c13.4,10.1,25.4,22,35.4,35.4
		c15.5,20.6,26.6,44.7,31.9,70.9H177.2C157.6,141.7,141.7,157.6,141.7,177.2z"/>
	
		<linearGradient id="SVGID_2_" gradientUnits="userSpaceOnUse" x1="236.6698" y1="550.4106" x2="82.0816" y2="84.5283" gradientTransform="matrix(1 0 0 -1 0 510.7948)">
		<stop  offset="0.1801" style="stop-color:#AA771C"/>
		<stop  offset="1" style="stop-color:#FCF6BA"/>
	</linearGradient>
	<path class="st1" d="M350.8,141.7h-20.9c-5.2-15.3-12.6-29.6-21.8-42.4c-8.7-12.1-19-22.8-30.6-31.9
		c-17.8-13.9-38.6-23.9-61.2-28.7c-9.9-2.1-20.1-3.2-30.6-3.2c-10.5,0-20.7,1.1-30.6,3.2c-22.6,4.8-43.4,14.8-61.2,28.7
		c-11.6,9.1-21.9,19.8-30.6,31.9c-13.4,18.5-22.9,40.2-27.5,63.7c-2,10.3-3.1,21-3.1,31.9s1,21.6,3.1,31.9
		c4.6,23.5,14.1,45.2,27.5,63.7c8.7,12.1,19,22.8,30.6,31.9c17.8,13.9,38.6,23.9,61.2,28.7c9.9,2.1,20.1,3.2,30.6,3.2h-8.6
		c-12.1,0-24-1.2-35.4-3.5c-26.2-5.3-50.3-16.4-70.9-31.9c-13.4-10.1-25.4-22-35.5-35.5c-15.5-20.6-26.6-44.7-31.9-70.9
		C1.2,201.1,0,189.3,0,177.2c0-12.1,1.2-24,3.5-35.4c5.3-26.2,16.4-50.3,31.9-70.9c10.1-13.4,22-25.4,35.4-35.4
		c20.6-15.5,44.7-26.6,70.9-31.9C153.2,1.2,165,0,177.2,0c12.1,0,24,1.2,35.4,3.5c26.2,5.3,50.3,16.4,70.9,31.9
		c13.4,10.1,25.4,22,35.4,35.4C334.4,91.5,345.5,115.6,350.8,141.7z"/>
	
		<linearGradient id="SVGID_3_" gradientUnits="userSpaceOnUse" x1="130.11" y1="322.9148" x2="350.78" y2="322.9148" gradientTransform="matrix(1 0 0 -1 0 510.7948)">
		<stop  offset="0" style="stop-color:#AA771C"/>
		<stop  offset="1" style="stop-color:#FCF6BA"/>
	</linearGradient>
	<path class="st2" d="M177.2,212.6H248v21.6h-71.6c-25.6,0-46.3-20.7-46.3-46.3c0-25.6,20.7-46.3,46.3-46.3h174.3c0,0.1,0,0.1,0,0.1
		H177.2c-19.6,0-35.4,15.9-35.4,35.4C141.7,196.7,157.6,212.6,177.2,212.6z"/>
	
		<linearGradient id="SVGID_4_" gradientUnits="userSpaceOnUse" x1="460.2837" y1="376.5018" x2="370.2837" y2="4.8547" gradientTransform="matrix(1 0 0 -1 0 510.7948)">
		<stop  offset="0" style="stop-color:#BF953F"/>
		<stop  offset="1" style="stop-color:#FCF6BA"/>
	</linearGradient>
	<path class="st3" d="M425.2,389.8c0-19.6-15.9-35.4-35.4-35.4h-70.9V212.6h70.9c12.1,0,24,1.2,35.4,3.6
		c26.2,5.3,50.3,16.4,70.9,31.9c13.4,10.1,25.4,22,35.5,35.4c15.5,20.6,26.6,44.7,31.9,70.9c2.3,11.5,3.5,23.3,3.5,35.4
		s-1.2,24-3.5,35.4c-5.3,26.2-16.4,50.3-31.9,70.9c-10.1,13.4-22,25.4-35.4,35.4c-20.6,15.5-44.7,26.6-70.9,31.9
		c-11.5,2.3-23.3,3.5-35.4,3.5c-12.1,0-24-1.2-35.4-3.5c-26.2-5.3-50.3-16.4-70.9-31.9c-13.4-10.1-25.4-22-35.4-35.4
		c-15.5-20.6-26.6-44.7-31.9-70.9h173.6C409.3,425.2,425.2,409.3,425.2,389.8z"/>
	
		<linearGradient id="SVGID_5_" gradientUnits="userSpaceOnUse" x1="497.3274" y1="290.7468" x2="292.6215" y2="-113.0179" gradientTransform="matrix(1 0 0 -1 0 510.7948)">
		<stop  offset="0" style="stop-color:#AA771C"/>
		<stop  offset="1" style="stop-color:#FCF6BA"/>
	</linearGradient>
	<path class="st4" d="M216.2,425.2H237c5.2,15.3,12.6,29.6,21.8,42.4c8.7,12.1,19,22.8,30.6,31.9c17.8,13.9,38.6,23.9,61.2,28.7
		c9.9,2.1,20.1,3.2,30.6,3.2c10.5,0,20.7-1.1,30.6-3.2c22.6-4.8,43.4-14.8,61.1-28.7c11.6-9.1,21.9-19.8,30.6-31.9
		c13.4-18.5,22.9-40.2,27.5-63.8c2-10.3,3.1-21,3.1-31.9s-1-21.6-3.1-31.9c-4.6-23.5-14.2-45.2-27.5-63.7
		c-8.7-12.1-19-22.8-30.6-31.9c-17.8-13.9-38.6-23.9-61.1-28.7c-9.9-2.1-20.1-3.2-30.6-3.2h8.6c12.1,0,24,1.2,35.4,3.6
		c26.2,5.3,50.3,16.4,70.9,31.9c13.4,10.1,25.4,22,35.5,35.4c15.5,20.6,26.6,44.7,31.9,70.9c2.3,11.5,3.5,23.3,3.5,35.4
		s-1.2,24-3.5,35.4c-5.3,26.2-16.4,50.3-31.9,70.9c-10.1,13.4-22,25.4-35.4,35.4c-20.6,15.5-44.7,26.6-70.9,31.9
		c-11.5,2.3-23.3,3.5-35.4,3.5c-12.1,0-24-1.2-35.4-3.5c-26.2-5.3-50.3-16.4-70.9-31.9c-13.4-10.1-25.4-22-35.4-35.4
		C232.6,475.5,221.5,451.4,216.2,425.2z"/>
	
		<linearGradient id="SVGID_6_" gradientUnits="userSpaceOnUse" x1="470.9959" y1="129.0393" x2="275.1136" y2="132.2158" gradientTransform="matrix(1 0 0 -1 0 510.7948)">
		<stop  offset="0" style="stop-color:#AA771C"/>
		<stop  offset="1" style="stop-color:#FCF6BA"/>
	</linearGradient>
	<path class="st5" d="M389.8,354.3h-70.9v-21.6h71.6c25.6,0,46.3,20.7,46.3,46.3c0,25.6-20.7,46.3-46.3,46.3H216.2c0,0,0-0.1,0-0.1
		h173.6c19.6,0,35.4-15.9,35.4-35.4C425.2,370.2,409.3,354.3,389.8,354.3z"/>
</g>
</svg>
